<svg width="123" height="57" viewBox="0 0 123 57" fill="none" xmlns="http://www.w3.org/2000/svg">
<path fill-rule="evenodd" clip-rule="evenodd" d="M19.427 24.5383H28.0765V56.9409H19.427V44.002H8.64953V56.9409H0V24.5383H8.64953V37.4526H19.427V24.5383ZM114.353 24.5457L106.828 34.8352L99.3073 24.5457H90.6577L102.505 40.7421L90.6577 56.9384H99.3073L106.828 46.6489L114.353 56.9384H122.983L111.145 40.7421L122.983 24.5457H114.353ZM76.451 15.9108L64.6501 0L56.0682 23.0708L47.4863 46.1417L36.6793 15.9083H0V22.3864H30.2069L43.1714 56.9384H51.7963L66.8986 16.3466L71.3783 22.3864H123V15.9083H76.4485L76.451 15.9108ZM75.5161 50.4629V43.9848L88.4855 44.0439V37.4452L75.5161 37.5043V31.1075L92.7955 31.0287L88.0525 24.5457H67.5333H66.8986V56.9409V57L88.0329 56.9409L92.7931 50.4629H75.5137H75.5161Z" fill="url(#paint0_linear_1_203)"/>
<defs>
<linearGradient id="paint0_linear_1_203" x1="61.6587" y1="58.0809" x2="61.5034" y2="36.9183" gradientUnits="userSpaceOnUse">
<stop stop-color="#B8B8B8"/>
<stop offset="0.35" stop-color="#BFBFBF"/>
<stop offset="0.86" stop-color="#D3D3D3"/>
<stop offset="1" stop-color="#DBDBDB"/>
</linearGradient>
</defs>
</svg>
